<svg xmlns="http://www.w3.org/2000/svg" width="46" height="46" viewBox="0 0 46 46">
  <g id="Group_17" data-name="Group 17" transform="translate(-272 -307)">
    <rect id="Rectangle_18" data-name="Rectangle 18" width="46" height="46" rx="8" transform="translate(272 307)" fill="#b3bfd9"/>
    <path id="iconmonstr-user-20" d="M12,0A12,12,0,1,0,24,12,12,12,0,0,0,12,0Zm7.753,18.305a2.371,2.371,0,0,0-1.871-1.241c-2.293-.529-4.428-.993-3.393-2.945C17.634,8.177,15.322,5,12,5,8.612,5,6.356,8.3,9.511,14.119c1.066,1.964-1.148,2.427-3.393,2.945A2.355,2.355,0,0,0,4.251,18.31a10,10,0,1,1,15.5,0Z" transform="translate(283 318)" fill="#fff"/>
  </g>
</svg>
