<svg xmlns="http://www.w3.org/2000/svg" width="46" height="46" viewBox="0 0 46 46">
  <g id="Group_8" data-name="Group 8" transform="translate(-54 -255)">
    <rect id="Rectangle_10" data-name="Rectangle 10" width="46" height="46" rx="8" transform="translate(54 255)" fill="#1f4699"/>
    <path id="iconmonstr-basket-1" d="M4.558,7l4.7-4.7A1.02,1.02,0,0,1,11,3.029a.993.993,0,0,1-.3.711L7.441,7Zm12,0h2.883l-4.7-4.7A1.02,1.02,0,0,0,13,3.029a.993.993,0,0,0,.3.711ZM0,9v2H.643a1.4,1.4,0,0,1,1.256.784L6,22H18l4.1-10.214A1.4,1.4,0,0,1,23.358,11H24V9H0Z" transform="translate(65 266)" fill="#fff"/>
  </g>
</svg>
