<svg xmlns="http://www.w3.org/2000/svg" width="46" height="46" viewBox="0 0 46 46">
  <g id="Group_19" data-name="Group 19" transform="translate(-54 -307)">
    <rect id="Rectangle_9" data-name="Rectangle 9" width="46" height="46" rx="8" transform="translate(54 307)" fill="#b3bfd9"/>
    <path id="iconmonstr-basket-2" d="M4.558,7l4.7-4.7A1.02,1.02,0,0,1,11,3.029a.993.993,0,0,1-.3.711L7.441,7Zm12,0h2.883l-4.7-4.7A1.02,1.02,0,0,0,13,3.029a.993.993,0,0,0,.3.711Zm3.7,4-.016.041L16.648,20h-9.3l-3.6-8.961L3.739,11ZM24,9H0v2H.643a1.4,1.4,0,0,1,1.256.784L6,22H18l4.1-10.214A1.4,1.4,0,0,1,23.358,11H24V9Z" transform="translate(65 318)" fill="#fff"/>
  </g>
</svg>
