<svg xmlns="http://www.w3.org/2000/svg" width="46" height="46" viewBox="0 0 46 46">
  <g id="Group_14" data-name="Group 14" transform="translate(-109 -307)">
    <rect id="Rectangle_15" data-name="Rectangle 15" width="46" height="46" rx="8" transform="translate(109 307)" fill="#b3bfd9"/>
    <path id="iconmonstr-building-8" d="M13,23l-9.983-.014V13.007l8.974-7.995q1.686,1.5,3.378,3l2.255,2C18.751,11.008,19.876,12,21,13V23l-5.993-.014L15,18H13Zm6-2,.019-7.121L11.991,7.686,5,13.9V21h6V16h6v5ZM9,16v3H7V16ZM12,1,24,11.654l-1.328,1.494L12,3.66,1.328,13.148,0,11.654,12,1Z" transform="translate(120 318)" fill="#fff" fill-rule="evenodd"/>
  </g>
</svg>
