<svg xmlns="http://www.w3.org/2000/svg" width="46" height="46" viewBox="0 0 46 46">
  <g id="Group_16" data-name="Group 16" transform="translate(-218 -307)">
    <rect id="Rectangle_17" data-name="Rectangle 17" width="46" height="46" rx="8" transform="translate(218 307)" fill="#b3bfd9"/>
    <path id="iconmonstr-shield-18" d="M12,2.544A11.886,11.886,0,0,0,19,4.96v9.575c0,3.042-1.687,3.827-7,7.107-5.31-3.278-7-4.065-7-7.107V4.96a11.886,11.886,0,0,0,7-2.416ZM12,0C8.629,2.866,6.516,3,3,3V14.535c0,4.6,3.2,5.8,9,9.465,5.8-3.661,9-4.862,9-9.465V3C17.484,3,15.371,2.866,12,0Z" transform="translate(229 318)" fill="#fff"/>
  </g>
</svg>
