<svg xmlns="http://www.w3.org/2000/svg" width="46" height="46" viewBox="0 0 46 46">
  <g id="Group_7" data-name="Group 7" transform="translate(-1243 -394)">
    <g id="Rectangle_8" data-name="Rectangle 8" transform="translate(1243 394)" stroke="#fff" stroke-width="1">
      <rect width="46" height="46" rx="8" stroke="none"/>
      <rect x="0.5" y="0.5" width="45" height="45" rx="7.5" fill="none"/>
    </g>
    <path id="iconmonstr-weather-114" d="M12,11a4.51,4.51,0,0,1,3,3,4.519,4.519,0,0,1,3-3,4.521,4.521,0,0,1-3-3,4.509,4.509,0,0,1-3,3Zm8,0a3.011,3.011,0,0,1,2,2,3.006,3.006,0,0,1,2-2,3.012,3.012,0,0,1-2-2A3.01,3.01,0,0,1,20,11ZM19,2a4.514,4.514,0,0,1-3,3,4.52,4.52,0,0,1,3,3,4.515,4.515,0,0,1,3-3,4.522,4.522,0,0,1-3-3ZM12,24A12,12,0,0,1,12,0a14.542,14.542,0,0,1,5.37,1.179C14.422,1.683,8,4.445,8,12c0,7.454,5.917,10.208,9.37,10.821A11.225,11.225,0,0,1,12,24Z" transform="translate(1254 405)" fill="#fff"/>
  </g>
</svg>
