<svg xmlns="http://www.w3.org/2000/svg" width="46" height="46" viewBox="0 0 46 46">
  <g id="gallery" transform="translate(-269 -179)">
    <rect id="Rectangle_6" data-name="Rectangle 6" width="46" height="46" rx="8" transform="translate(269 179)" fill="#428cff"/>
    <path id="iconmonstr-gallery-vertical-filled" d="M17.6,5.125A1.2,1.2,0,0,0,16.4,4H3.2A1.2,1.2,0,0,0,2,5.125v15.75A1.2,1.2,0,0,0,3.2,22H16.4a1.2,1.2,0,0,0,1.2-1.125ZM26,18.175a1.2,1.2,0,0,0-1.2-1.125H20.48a1.2,1.2,0,0,0-1.2,1.125v2.7A1.2,1.2,0,0,0,20.48,22H24.8A1.2,1.2,0,0,0,26,20.875Zm0-6.525a1.2,1.2,0,0,0-1.2-1.125H20.48a1.2,1.2,0,0,0-1.2,1.125v2.7a1.2,1.2,0,0,0,1.2,1.125H24.8A1.2,1.2,0,0,0,26,14.35Zm0-6.525A1.2,1.2,0,0,0,24.8,4H20.48a1.2,1.2,0,0,0-1.2,1.125v2.7a1.2,1.2,0,0,0,1.2,1.125H24.8A1.2,1.2,0,0,0,26,7.825Z" transform="translate(278 189)" fill="#fff"/>
  </g>
</svg>
