<svg xmlns="http://www.w3.org/2000/svg" width="46" height="46" viewBox="0 0 46 46">
  <g id="Group_6" data-name="Group 6" transform="translate(-1186 -394)">
    <g id="Rectangle_7" data-name="Rectangle 7" transform="translate(1186 394)" fill="#fff" stroke="#000" stroke-width="1">
      <rect width="46" height="46" rx="8" stroke="none"/>
      <rect x="0.5" y="0.5" width="45" height="45" rx="7.5" fill="none"/>
    </g>
    <path id="iconmonstr-brightness-9" d="M22.088,13.126,24,12l-1.912-1.126A2.172,2.172,0,0,1,21.3,7.932L22.393,6l-2.22-.02A2.171,2.171,0,0,1,18.02,3.827L18,1.608,16.068,2.7a2.172,2.172,0,0,1-2.941-.788L12,0,10.873,1.913A2.172,2.172,0,0,1,7.932,2.7L6,1.608,5.98,3.827A2.171,2.171,0,0,1,3.827,5.98L1.607,6,2.7,7.932a2.172,2.172,0,0,1-.788,2.942L0,12l1.912,1.126A2.172,2.172,0,0,1,2.7,16.068L1.607,18l2.22.02A2.171,2.171,0,0,1,5.98,20.173L6,22.392,7.932,21.3a2.172,2.172,0,0,1,2.941.788L12,24l1.127-1.913a2.172,2.172,0,0,1,2.941-.788L18,22.392l.02-2.219a2.173,2.173,0,0,1,2.153-2.153l2.22-.02L21.3,16.068a2.172,2.172,0,0,1,.788-2.942ZM11.971,20a8,8,0,1,1,8-8,8.009,8.009,0,0,1-8,8ZM18,12a6,6,0,1,1-6-6A6,6,0,0,1,18,12Z" transform="translate(1197 405)"/>
  </g>
</svg>
