<svg xmlns="http://www.w3.org/2000/svg" width="46" height="46" viewBox="0 0 46 46">
  <g id="Group_8" data-name="Group 8" transform="translate(-1186 -530)">
    <rect id="Rectangle_10" data-name="Rectangle 10" width="46" height="46" rx="8" transform="translate(1186 530)" fill="#428cff"/>
    <rect id="Rectangle_9" data-name="Rectangle 9" width="46" height="46" rx="8" transform="translate(1186 530)" fill="rgba(141,66,255,0.39)"/>
    <path id="iconmonstr-file-33" d="M12.819,14.427a1.881,1.881,0,0,1-.021.948.74.74,0,0,1-.754.528h-.637v-2.12h.5a.816.816,0,0,1,.916.644Zm3.091-8.65A8.811,8.811,0,0,1,22,6.956c-1.494-2-5.23-5.708-7.432-6.882C15.725,1.242,16.131,4.309,15.91,5.777ZM8.453,13.732H7.907v.943h.546c.235,0,.467-.027.576-.227a.62.62,0,0,0,0-.489c-.109-.2-.341-.227-.576-.227ZM22,11V24H2V0h8.409c4.858,0,3.334,8,3.334,8C16.754,7.255,22,7.58,22,11ZM9.892,13.761A1.179,1.179,0,0,0,8.668,13H7v3.686h.907V15.409h.761a1.177,1.177,0,0,0,1.224-.763A1.424,1.424,0,0,0,9.892,13.761Zm3.407-.3A1.643,1.643,0,0,0,12.1,13H10.5v3.686h1.6a1.574,1.574,0,0,0,1.262-.535A2.237,2.237,0,0,0,13.3,13.458ZM17,13H14.372v3.686h.907V15.214h1.49v-.732h-1.49v-.7H17V13Z" transform="translate(1197 541)" fill="#fff"/>
  </g>
</svg>
